<svg xmlns="http://www.w3.org/2000/svg" xmlns:xlink="http://www.w3.org/1999/xlink" contentStyleType="text/css" height="602px" preserveAspectRatio="none" style="width:561px;height:602px;background:#FFFFFF;" version="1.1" viewBox="0 0 561 602" width="561px" zoomAndPan="magnify"><defs/><g><!--cluster mobile App--><g id="cluster_mobile App"><rect fill="none" height="203.98" rx="2.5" ry="2.5" style="stroke:#181818;stroke-width:1;" width="212" x="319" y="7"/><path d="M411.5781,7 L411.5781,16.4883 L401.5781,26.4883 L319,26.4883 " fill="none" style="stroke:#181818;stroke-width:1;"/><text fill="#000000" font-family="sans-serif" font-size="14" font-weight="bold" lengthAdjust="spacing" textLength="82.5781" x="322" y="21.5352">mobile App</text></g><!--cluster central Service--><g id="cluster_central Service"><polygon fill="none" points="363,244.98,373,234.98,544,234.98,544,327.46,534,337.46,363,337.46,363,244.98" style="stroke:#181818;stroke-width:1;"/><line style="stroke:#181818;stroke-width:1;" x1="534" x2="544" y1="244.98" y2="234.98"/><line style="stroke:#181818;stroke-width:1;" x1="363" x2="534" y1="244.98" y2="244.98"/><line style="stroke:#181818;stroke-width:1;" x1="534" x2="534" y1="244.98" y2="337.46"/><text fill="#000000" font-family="sans-serif" font-size="14" font-weight="bold" lengthAdjust="spacing" textLength="105.3623" x="396.8188" y="261.5152">central Service</text></g><!--cluster central Server--><g id="cluster_central Server"><path d="M8.5,361.46 L109.2227,361.46 A3.75,3.75 0 0 1 111.7227,363.96 L118.7227,383.9483 L537.5,383.9483 A2.5,2.5 0 0 1 540,386.4483 L540,592.94 A2.5,2.5 0 0 1 537.5,595.44 L8.5,595.44 A2.5,2.5 0 0 1 6,592.94 L6,363.96 A2.5,2.5 0 0 1 8.5,361.46 " fill="none" style="stroke:#000000;stroke-width:1.5;"/><line style="stroke:#000000;stroke-width:1.5;" x1="6" x2="118.7227" y1="383.9483" y2="383.9483"/><text fill="#000000" font-family="sans-serif" font-size="14" font-weight="bold" lengthAdjust="spacing" textLength="99.7227" x="10" y="376.9952">central Server</text></g><g id="cluster_##9"><path d="M342.9836,503.0729 C344.9419,497.1452 350.591,496.6923 354.3232,501.133 C357.0186,495.7462 361.9844,494.1383 365.9403,499.8088 C370.1473,494.7078 375.5857,494.7808 379.2136,500.5181 C382.2875,493.8083 386.6117,494.4776 391.0876,499.0415 C393.6527,492.9961 398.1512,492.5831 402.7808,496.6554 C406.1284,490.7934 410.4666,490.554 414.4106,496.0443 C418.6064,490.4076 422.8722,491.3707 426.2751,496.8877 C430.382,491.6251 434.2714,490.298 438.6712,496.5731 C443.3992,491.6948 447.4432,492.0896 450.3056,498.4965 C453.6354,493.6214 458.5006,494.7225 460.9129,499.5044 C464.5302,492.914 470.2276,493.123 474.0429,499.3008 C478.0645,494.3679 483.4598,494.5674 486.1274,500.7702 C489.7168,495.7415 494.0048,495.2317 497.0275,501.3256 C500.1715,496.7718 504.9602,495.611 508.187,501.2349 C518.2508,504.136 517.5355,511.3027 511.9074,517.7408 C521.2814,520.4974 521.1613,527.568 515.8326,533.8967 C521.8335,539.8765 520.4571,545.9668 513.1462,549.6811 C518.2135,555.8633 516.877,561.9842 508.9849,564.5362 C506.7159,569.5734 501.4393,569.598 498.3919,565.4321 C493.9694,571.1382 489.8666,570.2958 485.7803,565.0452 C482.6365,571.5147 478.1452,573.9461 472.5886,567.5119 C468.9483,573.6804 463.496,573.0797 460.7994,566.6302 C458.0473,571.7507 452.468,572.0717 449.3558,567.0359 C446.9415,573.1094 442.8763,573.4287 438.727,568.7512 C436.1247,575.346 430.2431,576.278 426.3924,569.9418 C422.3851,574.8288 418.718,574.3503 415.4166,569.1722 C410.2028,575.5659 405.8953,576.1933 401.4114,568.4492 C396.6214,573.8012 392.1907,573.6531 389.4567,566.4859 C385.8015,572.1178 382.0065,572.7752 378.1867,566.6436 C375.1928,571.7192 370.5304,571.5161 367.2591,566.9582 C362.7946,571.9726 357.0395,570.5926 355.2638,564.1444 C352.1281,570.3356 347.892,570.1515 343.8189,565.0986 C335.4615,560.908 334.9431,555.3253 342.6328,549.8837 C336.0593,545.8108 334.7982,538.7288 342.3831,534.4271 C334.297,528.4748 335.6279,523.613 343.4273,518.7165 C335.2087,514.0189 335.5486,508.2146 342.9836,503.0729 " fill="none" style="stroke:#181818;stroke-width:1;"/></g><!--cluster Mrbs--><g id="cluster_Mrbs"><path d="M30,468.95 C30,458.95 170,458.95 170,458.95 C170,458.95 310,458.95 310,468.95 L310,561.44 C310,571.44 170,571.44 170,571.44 C170,571.44 30,571.44 30,561.44 L30,468.95 " fill="none" style="stroke:#181818;stroke-width:1;"/><path d="M30,468.95 C30,478.95 170,478.95 170,478.95 C170,478.95 310,478.95 310,468.95 " fill="none" style="stroke:#181818;stroke-width:1;"/><text fill="#000000" font-family="sans-serif" font-size="14" font-weight="bold" lengthAdjust="spacing" textLength="36.2646" x="151.8677" y="494.4852">Mrbs</text></g><!--entity Tauri--><g id="elem_Tauri"><rect fill="#F1F1F1" height="46.4883" rx="2.5" ry="2.5" style="stroke:#181818;stroke-width:0.5;" width="75.0479" x="387.48" y="42"/><rect fill="#F1F1F1" height="10" style="stroke:#181818;stroke-width:0.5;" width="15" x="442.5279" y="47"/><rect fill="#F1F1F1" height="2" style="stroke:#181818;stroke-width:0.5;" width="4" x="440.5279" y="49"/><rect fill="#F1F1F1" height="2" style="stroke:#181818;stroke-width:0.5;" width="4" x="440.5279" y="53"/><text fill="#000000" font-family="sans-serif" font-size="14" lengthAdjust="spacing" textLength="35.0479" x="402.48" y="75.5352">Tauri</text></g><!--entity Samply_Proxy_Client--><g id="elem_Samply_Proxy_Client"><rect fill="#F1F1F1" height="46.4883" rx="2.5" ry="2.5" style="stroke:#181818;stroke-width:0.5;" width="179.9863" x="335.01" y="148.49"/><rect fill="#F1F1F1" height="10" style="stroke:#181818;stroke-width:0.5;" width="15" x="494.9963" y="153.49"/><rect fill="#F1F1F1" height="2" style="stroke:#181818;stroke-width:0.5;" width="4" x="492.9963" y="155.49"/><rect fill="#F1F1F1" height="2" style="stroke:#181818;stroke-width:0.5;" width="4" x="492.9963" y="159.49"/><text fill="#000000" font-family="sans-serif" font-size="14" lengthAdjust="spacing" textLength="139.9863" x="350.01" y="182.0252">Samply_Proxy_Client</text></g><!--entity Broker--><g id="elem_Broker"><rect fill="#F1F1F1" height="46.4883" rx="2.5" ry="2.5" style="stroke:#181818;stroke-width:0.5;" width="84.0918" x="382.95" y="274.98"/><rect fill="#F1F1F1" height="10" style="stroke:#181818;stroke-width:0.5;" width="15" x="447.0418" y="279.98"/><rect fill="#F1F1F1" height="2" style="stroke:#181818;stroke-width:0.5;" width="4" x="445.0418" y="281.98"/><rect fill="#F1F1F1" height="2" style="stroke:#181818;stroke-width:0.5;" width="4" x="445.0418" y="285.98"/><text fill="#000000" font-family="sans-serif" font-size="14" lengthAdjust="spacing" textLength="44.0918" x="397.95" y="308.5152">Broker</text></g><!--entity Samply_Proxy_Server--><g id="elem_Samply_Proxy_Server"><rect fill="#F1F1F1" height="46.4883" rx="2.5" ry="2.5" style="stroke:#181818;stroke-width:0.5;" width="182.3242" x="333.84" y="396.46"/><rect fill="#F1F1F1" height="10" style="stroke:#181818;stroke-width:0.5;" width="15" x="496.1642" y="401.46"/><rect fill="#F1F1F1" height="2" style="stroke:#181818;stroke-width:0.5;" width="4" x="494.1642" y="403.46"/><rect fill="#F1F1F1" height="2" style="stroke:#181818;stroke-width:0.5;" width="4" x="494.1642" y="407.46"/><text fill="#000000" font-family="sans-serif" font-size="14" lengthAdjust="spacing" textLength="142.3242" x="348.84" y="429.9952">Samply_Proxy_Server</text></g><!--entity Server_REST_API--><g id="elem_Server_REST_API"><rect fill="#F1F1F1" height="46.4883" rx="2.5" ry="2.5" style="stroke:#181818;stroke-width:0.5;" width="150.1064" x="349.95" y="508.95"/><rect fill="#F1F1F1" height="10" style="stroke:#181818;stroke-width:0.5;" width="15" x="480.0564" y="513.95"/><rect fill="#F1F1F1" height="2" style="stroke:#181818;stroke-width:0.5;" width="4" x="478.0564" y="515.95"/><rect fill="#F1F1F1" height="2" style="stroke:#181818;stroke-width:0.5;" width="4" x="478.0564" y="519.95"/><text fill="#000000" font-family="sans-serif" font-size="14" lengthAdjust="spacing" textLength="110.1064" x="364.95" y="542.4852">Server_REST_API</text></g><!--entity Internal_Roombooking_System--><g id="elem_Internal_Roombooking_System"><rect fill="#F1F1F1" height="46.4883" rx="2.5" ry="2.5" style="stroke:#181818;stroke-width:0.5;" width="248.8311" x="45.58" y="508.95"/><rect fill="#F1F1F1" height="10" style="stroke:#181818;stroke-width:0.5;" width="15" x="274.4111" y="513.95"/><rect fill="#F1F1F1" height="2" style="stroke:#181818;stroke-width:0.5;" width="4" x="272.4111" y="515.95"/><rect fill="#F1F1F1" height="2" style="stroke:#181818;stroke-width:0.5;" width="4" x="272.4111" y="519.95"/><text fill="#000000" font-family="sans-serif" font-size="14" lengthAdjust="spacing" textLength="208.8311" x="60.58" y="542.4852">Internal_Roombooking_System</text></g><!--link Tauri to Samply_Proxy_Client--><g id="link_Tauri_Samply_Proxy_Client"><path d="M425,88.92 C425,106.44 425,130.59 425,148.1 " fill="none" id="Tauri-Samply_Proxy_Client" style="stroke:#181818;stroke-width:1;stroke-dasharray:7.0,7.0;"/></g><!--link Samply_Proxy_Client to Broker--><g id="link_Samply_Proxy_Client_Broker"><path d="M425,195.27 C425,217.84 425,252.34 425,274.84 " fill="none" id="Samply_Proxy_Client-Broker" style="stroke:#181818;stroke-width:1;"/></g><!--link Broker to Samply_Proxy_Server--><g id="link_Broker_Samply_Proxy_Server"><path d="M425,321.69 C425,343.06 425,375 425,396.33 " fill="none" id="Broker-Samply_Proxy_Server" style="stroke:#181818;stroke-width:1;"/></g><!--link Samply_Proxy_Server to Server_REST_API--><g id="link_Samply_Proxy_Server_Server_REST_API"><path d="M425,443.33 C425,462.4 425,489.54 425,508.6 " fill="none" id="Samply_Proxy_Server-Server_REST_API" style="stroke:#181818;stroke-width:1;"/></g><!--link Server_REST_API to Internal_Roombooking_System--><g id="link_Server_REST_API_Internal_Roombooking_System"><path d="M349.56,532.2 C331.21,532.2 312.86,532.2 294.51,532.2 " fill="none" id="Server_REST_API-Internal_Roombooking_System" style="stroke:#181818;stroke-width:1;"/></g><!--SRC=[VP31QiCm38RlVWgHIq_fEtHZXnu6fIcxb6BaH0icjXMKf2oCldjDd7PRbyq78__w9FdNkw0do3mRwmWsRPjzAeZdUC11x2d51VhMZNed_37gPsSfz2TrKIfm5MlB-1HqK92SRKaPp1sUX1kI2LGjbWtM3p39dVqn8UNIxDBnKCrK8gUathyK1xtPRHDrcUuAUpJOnIclOhhiUzKsz2G1dTupUyFSs53hOknwyhSEyPkh5RoH61kg8TGKrBm4MA__sC6Y2dd-PVuMJEAYoqKruOzMVocG_s_j2W00]--></g></svg>